<?xml version="1.0" standalone="no"?>
<svg xmlns:xlink="http://www.w3.org/1999/xlink" id="wave" style="transform:rotate(180deg); transition: 0.3s" viewBox="0 0 1440 170" version="1.1" xmlns="http://www.w3.org/2000/svg"><defs><linearGradient id="sw-gradient-0" x1="0" x2="0" y1="1" y2="0"><stop stop-color="rgba(0, 0, 0, 1)" offset="0%"/><stop stop-color="rgba(255, 0, 0, 1)" offset="100%"/></linearGradient></defs><path style="transform:translate(0, 0px); opacity:1" fill="url(#sw-gradient-0)" d="M0,51L34.3,65.2C68.6,79,137,108,206,99.2C274.3,91,343,45,411,39.7C480,34,549,68,617,70.8C685.7,74,754,45,823,36.8C891.4,28,960,40,1029,59.5C1097.1,79,1166,108,1234,104.8C1302.9,102,1371,68,1440,68C1508.6,68,1577,102,1646,96.3C1714.3,91,1783,45,1851,25.5C1920,6,1989,11,2057,17C2125.7,23,2194,28,2263,28.3C2331.4,28,2400,23,2469,19.8C2537.1,17,2606,17,2674,39.7C2742.9,62,2811,108,2880,121.8C2948.6,136,3017,119,3086,102C3154.3,85,3223,68,3291,51C3360,34,3429,17,3497,19.8C3565.7,23,3634,45,3703,62.3C3771.4,79,3840,91,3909,99.2C3977.1,108,4046,113,4114,119C4182.9,125,4251,130,4320,124.7C4388.6,119,4457,102,4526,102C4594.3,102,4663,119,4731,121.8C4800,125,4869,113,4903,107.7L4937.1,102L4937.1,170L4902.9,170C4868.6,170,4800,170,4731,170C4662.9,170,4594,170,4526,170C4457.1,170,4389,170,4320,170C4251.4,170,4183,170,4114,170C4045.7,170,3977,170,3909,170C3840,170,3771,170,3703,170C3634.3,170,3566,170,3497,170C3428.6,170,3360,170,3291,170C3222.9,170,3154,170,3086,170C3017.1,170,2949,170,2880,170C2811.4,170,2743,170,2674,170C2605.7,170,2537,170,2469,170C2400,170,2331,170,2263,170C2194.3,170,2126,170,2057,170C1988.6,170,1920,170,1851,170C1782.9,170,1714,170,1646,170C1577.1,170,1509,170,1440,170C1371.4,170,1303,170,1234,170C1165.7,170,1097,170,1029,170C960,170,891,170,823,170C754.3,170,686,170,617,170C548.6,170,480,170,411,170C342.9,170,274,170,206,170C137.1,170,69,170,34,170L0,170Z"/></svg>